<svg xmlns="http://www.w3.org/2000/svg" version="1.1" xmlns:xlink="http://www.w3.org/1999/xlink" width="1000" height="1000"><style>
    #light-icon {
      display: inline;
    }
    #dark-icon {
      display: none;
    }

    @media (prefers-color-scheme: dark) {
      #light-icon {
        display: none;
      }
      #dark-icon {
        display: inline;
      }
    }
  </style><g id="light-icon"><svg xmlns="http://www.w3.org/2000/svg" version="1.1" xmlns:xlink="http://www.w3.org/1999/xlink" width="1000" height="1000"><g><g transform="matrix(25,0,0,25,0,0)"><svg xmlns="http://www.w3.org/2000/svg" version="1.1" xmlns:xlink="http://www.w3.org/1999/xlink" width="40" height="40"><svg width="40" height="40" viewBox="0 0 40 40" fill="none" xmlns="http://www.w3.org/2000/svg">
<path fill-rule="evenodd" clip-rule="evenodd" d="M13.7146 0C11.4582 0 9.2943 0.896337 7.69881 2.49183L0 10.1906V13.7146C0 16.2043 1.06944 18.4442 2.77401 20C1.06944 21.5558 0 23.7957 0 26.2854V29.8094L7.69881 37.5082C9.2943 39.1037 11.4582 40 13.7146 40C16.2043 40 18.4442 38.9306 20 37.226C21.5558 38.9306 23.7957 40 26.2854 40C28.5418 40 30.7057 39.1037 32.3012 37.5082L40 29.8094V26.2854C40 23.7957 38.9306 21.5558 37.226 20C38.9306 18.4442 40 16.2043 40 13.7146V10.1906L32.3012 2.49183C30.7057 0.896337 28.5418 0 26.2854 0C23.7957 0 21.5558 1.06944 20 2.77401C18.4442 1.06944 16.2043 0 13.7146 0ZM25.7588 20C25.6629 19.9125 25.5688 19.8226 25.4766 19.7304L20 14.2538L14.5234 19.7304C14.4312 19.8226 14.3371 19.9125 14.2412 20C14.3371 20.0875 14.4312 20.1774 14.5234 20.2696L20 25.7462L25.4766 20.2696C25.5688 20.1774 25.6629 20.0875 25.7588 20ZM22.2222 29.8094V31.4924C22.2222 33.7364 24.0414 35.5556 26.2854 35.5556C27.363 35.5556 28.3965 35.1275 29.1585 34.3655L35.5556 27.9684V26.2854C35.5556 24.0414 33.7364 22.2222 31.4924 22.2222C30.4148 22.2222 29.3813 22.6503 28.6193 23.4123L22.2222 29.8094ZM17.7778 29.8094L11.3807 23.4123C10.6187 22.6503 9.58524 22.2222 8.50762 22.2222C6.26359 22.2222 4.44444 24.0414 4.44444 26.2854V27.9684L10.8415 34.3655C11.6035 35.1275 12.637 35.5556 13.7146 35.5556C15.9586 35.5556 17.7778 33.7364 17.7778 31.4924V29.8094ZM17.7778 8.50762V10.1906L11.3807 16.5877C10.6187 17.3497 9.58524 17.7778 8.50762 17.7778C6.26359 17.7778 4.44444 15.9586 4.44444 13.7146V12.0316L10.8415 5.63452C11.6035 4.87253 12.637 4.44445 13.7146 4.44445C15.9586 4.44445 17.7778 6.26359 17.7778 8.50762ZM28.6193 16.5877L22.2222 10.1906V8.50762C22.2222 6.26359 24.0414 4.44445 26.2854 4.44445C27.363 4.44445 28.3965 4.87253 29.1585 5.63452L35.5556 12.0316V13.7146C35.5556 15.9586 33.7364 17.7778 31.4924 17.7778C30.4148 17.7778 29.3813 17.3497 28.6193 16.5877Z" fill="#C7231A"></path>
</svg></svg></g></g></svg></g><g id="dark-icon"><svg xmlns="http://www.w3.org/2000/svg" version="1.1" xmlns:xlink="http://www.w3.org/1999/xlink" width="1000" height="1000"><g><g transform="matrix(24.390243902439025,0,0,24.390243902439025,12.195121951219505,0)"><svg xmlns="http://www.w3.org/2000/svg" version="1.1" xmlns:xlink="http://www.w3.org/1999/xlink" width="40" height="41"><svg width="40" height="41" viewBox="0 0 40 41" fill="none" xmlns="http://www.w3.org/2000/svg">
<g clip-path="url(#clip0_2146_1275)">
<path fill-rule="evenodd" clip-rule="evenodd" d="M13.7146 0.516113C11.4582 0.516113 9.2943 1.41245 7.69881 3.00794L0 10.7067V14.2307C0 16.7204 1.06944 18.9603 2.77401 20.5161C1.06944 22.0719 0 24.3118 0 26.8015V30.3255L7.69881 38.0243C9.2943 39.6198 11.4582 40.5161 13.7146 40.5161C16.2043 40.5161 18.4442 39.4467 20 37.7421C21.5558 39.4467 23.7957 40.5161 26.2854 40.5161C28.5418 40.5161 30.7057 39.6198 32.3012 38.0243L40 30.3255V26.8015C40 24.3118 38.9306 22.0719 37.226 20.5161C38.9306 18.9603 40 16.7204 40 14.2307V10.7067L32.3012 3.00794C30.7057 1.41245 28.5418 0.516113 26.2854 0.516113C23.7957 0.516113 21.5558 1.58555 20 3.29012C18.4442 1.58555 16.2043 0.516113 13.7146 0.516113ZM25.7588 20.5161C25.6629 20.4286 25.5688 20.3387 25.4766 20.2465L20 14.7699L14.5234 20.2465C14.4312 20.3387 14.3371 20.4286 14.2412 20.5161C14.3371 20.6036 14.4312 20.6935 14.5234 20.7857L20 26.2623L25.4766 20.7857C25.5688 20.6935 25.6629 20.6036 25.7588 20.5161ZM22.2222 30.3255V32.0085C22.2222 34.2525 24.0414 36.0717 26.2854 36.0717C27.363 36.0717 28.3965 35.6436 29.1585 34.8816L35.5556 28.4845V26.8015C35.5556 24.5575 33.7364 22.7383 31.4924 22.7383C30.4148 22.7383 29.3813 23.1664 28.6193 23.9284L22.2222 30.3255ZM17.7778 30.3255L11.3807 23.9284C10.6187 23.1664 9.58524 22.7383 8.50762 22.7383C6.26359 22.7383 4.44444 24.5575 4.44444 26.8015V28.4845L10.8415 34.8816C11.6035 35.6436 12.637 36.0717 13.7146 36.0717C15.9586 36.0717 17.7778 34.2525 17.7778 32.0085V30.3255ZM17.7778 9.02373V10.7067L11.3807 17.1038C10.6187 17.8658 9.58524 18.2939 8.50762 18.2939C6.26359 18.2939 4.44444 16.4747 4.44444 14.2307V12.5477L10.8415 6.15063C11.6035 5.38864 12.637 4.96056 13.7146 4.96056C15.9586 4.96056 17.7778 6.7797 17.7778 9.02373ZM28.6193 17.1038L22.2222 10.7067V9.02373C22.2222 6.7797 24.0414 4.96056 26.2854 4.96056C27.363 4.96056 28.3965 5.38864 29.1585 6.15063L35.5556 12.5477V14.2307C35.5556 16.4747 33.7364 18.2939 31.4924 18.2939C30.4148 18.2939 29.3813 17.8658 28.6193 17.1038Z" fill="#F25C54"></path>
</g>
<defs>
<clipPath id="clip0_2146_1275">
<rect width="40" height="41" fill="white"></rect>
</clipPath>
</defs>
</svg></svg></g></g></svg></g></svg>